<svg viewBox="0 0 128 128" xmlns="http://www.w3.org/2000/svg" shape-rendering="crispEdges">
  <path d="M0 0h4M0 1h3M0 2h2M0 3h1" fill="#0f2027" />
  <path d="M4 0h1M3 1h1M2 2h1M1 3h1M0 4h1" fill="#0f2028" />
  <path d="M5 0h2M4 1h2M3 2h2M2 3h2M1 4h2M0 5h2M0 6h1" fill="#0f2128" />
  <path d="M7 0h3M6 1h3M5 2h3M4 3h3M3 4h3M2 5h3M1 6h3M0 7h3M0 8h2M0 9h1" fill="#102128" />
  <path d="M10 0h1M9 1h1M8 2h1M7 3h1M6 4h1M5 5h1M4 6h1M3 7h1M2 8h1M1 9h1M0 10h1" fill="#102129" />
  <path d="M11 0h4M10 1h4M9 2h4M8 3h4M7 4h4M6 5h4M5 6h4M4 7h4M3 8h4M2 9h4M1 10h4M0 11h4M0 12h3M0 13h2M0 14h1" fill="#102229" />
  <path d="M15 0h2M14 1h1M13 2h2M12 3h1M11 4h2M10 5h1M9 6h2M8 7h1M7 8h2M6 9h1M5 10h2M4 11h1M3 12h2M2 13h1M1 14h2M0 15h1M0 16h1" fill="#10222a" />
  <path d="M17 0h4M16 1h4M15 2h4M14 3h4M13 4h4M12 5h4M11 6h4M10 7h4M9 8h4M8 9h4M7 10h4M6 11h4M5 12h4M4 13h4M3 14h4M2 15h4M1 16h4M0 17h4M0 18h3M0 19h2M0 20h1" fill="#11232a" />
  <path d="M21 0h1M20 1h1M19 2h1M18 3h1M17 4h1M16 5h1M15 6h1M14 7h1M13 8h1M12 9h1M11 10h1M10 11h1M9 12h1M8 13h1M7 14h1M6 15h1M5 16h1M4 17h1M3 18h1M2 19h1M1 20h1M0 21h1" fill="#11232b" />
  <path d="M22 0h3M21 1h3M20 2h3M19 3h3M18 4h3M17 5h3M16 6h3M15 7h3M14 8h3M13 9h3M12 10h3M11 11h3M10 12h3M9 13h3M8 14h3M7 15h3M6 16h3M5 17h3M4 18h3M3 19h3M2 20h3M1 21h3M0 22h3M0 23h2M0 24h1" fill="#11242b" />
  <path d="M25 0h1M24 1h1M23 2h1M22 3h1M21 4h1M20 5h1M19 6h1M18 7h1M17 8h1M16 9h1M15 10h1M14 11h1M13 12h1M12 13h1M11 14h1M10 15h1M9 16h1M8 17h1M7 18h1M6 19h1M5 20h1M4 21h1M3 22h1M2 23h1M1 24h1M0 25h1" fill="#12242b" />
  <path d="M26 0h2M25 1h2M24 2h2M23 3h2M22 4h2M21 5h2M20 6h2M19 7h2M18 8h2M17 9h2M16 10h2M15 11h2M14 12h2M13 13h2M12 14h2M11 15h2M10 16h2M9 17h2M8 18h2M7 19h2M6 20h2M5 21h2M4 22h2M3 23h2M2 24h2M1 25h2M0 26h2M0 27h1" fill="#12242c" />
  <path d="M28 0h4M27 1h4M26 2h4M25 3h4M24 4h4M23 5h4M22 6h4M21 7h4M20 8h4M19 9h4M18 10h3M17 11h4M16 12h4M15 13h4M14 14h4M13 15h4M12 16h4M11 17h4M10 18h4M9 19h4M8 20h4M7 21h3M6 22h4M5 23h4M4 24h4M3 25h4M2 26h4M1 27h4M0 28h4M0 29h3M0 30h2M0 31h1" fill="#12252c" />
  <path d="M32 0h2M31 1h2M30 2h2M29 3h2M28 4h2M27 5h2M26 6h2M25 7h2M24 8h2M23 9h2M20 12h1M19 13h2M18 14h2M17 15h2M15 17h1M14 18h2M13 19h2M12 20h2M9 23h1M8 24h2M7 25h2M6 26h2M5 27h2M4 28h2M3 29h2M2 30h2M1 31h2M0 32h2M0 33h1" fill="#12252d" />
  <path d="M34 0h1M33 1h1M32 2h1M31 3h1M30 4h1M29 5h1M28 6h1M27 7h1M26 8h1M25 9h1M20 14h1M19 15h1M15 19h1M14 20h1M9 25h1M8 26h1M7 27h1M6 28h1M5 29h1M4 30h1M3 31h1M2 32h1M1 33h1M0 34h1" fill="#12262d" />
  <path d="M35 0h2M34 1h2M33 2h2M32 3h2M31 4h2M30 5h2M29 6h2M28 7h2M27 8h2M26 9h2M20 15h1M15 20h1M9 26h1M8 27h2M7 28h2M6 29h2M5 30h2M4 31h2M3 32h2M2 33h2M1 34h2M0 35h2M0 36h1" fill="#13262d" />
  <path d="M37 0h3M36 1h3M35 2h3M34 3h3M33 4h3M32 5h3M31 6h3M30 7h3M29 8h3M28 9h3M9 28h1M8 29h2M7 30h3M6 31h3M5 32h3M4 33h3M3 34h3M2 35h3M1 36h3M0 37h3M0 38h2M0 39h1" fill="#13262e" />
  <path d="M40 0h3M39 1h3M38 2h3M37 3h3M36 4h3M35 5h3M34 6h3M33 7h3M32 8h3M31 9h3M9 31h1M8 32h2M7 33h3M6 34h3M5 35h3M4 36h3M3 37h2M2 38h3M1 39h3M0 40h3M0 41h2" fill="#13272e" />
  <path d="M43 0h3M43 1h2M41 2h3M41 3h2M39 4h3M39 5h2M37 6h3M37 7h2M35 8h3M35 9h2M9 34h1M9 35h1M7 36h3M3 40h2M3 41h2" fill="#14272f" />
  <path d="M46 0h2M45 1h2M44 2h2M43 3h2M42 4h2M41 5h2M40 6h2M39 7h2M38 8h2M37 9h2" fill="#14282f" />
  <path d="M48 0h4M47 1h4M46 2h4M45 3h4M44 4h4M43 5h4M42 6h4M41 7h4M40 8h4M39 9h4" fill="#142830" />
  <path d="M52 0h1M51 1h1M50 2h1M49 3h1M48 4h1M47 5h1M46 6h1M45 7h1M44 8h1M43 9h1" fill="#142930" />
  <path d="M53 0h5M53 1h4M51 2h5M51 3h4M49 4h5M49 5h4M47 6h5M47 7h4M45 8h5M45 9h4M43 10h5M43 11h4M43 12h3M43 13h2M43 14h1" fill="#152931" />
  <path d="M58 0h1M57 1h1M56 2h1M55 3h1M54 4h1M53 5h1M52 6h1M51 7h1M50 8h1M49 9h1M48 10h1M47 11h1M46 12h1M45 13h1M44 14h1M43 15h1" fill="#152a31" />
  <path d="M59 0h2M58 1h3M57 2h2M56 3h3M55 4h2M54 5h3M53 6h2M52 7h3M51 8h2M50 9h3M49 10h2M48 11h3M47 12h2M46 13h3M45 14h2M44 15h3" fill="#152a32" />
  <path d="M61 0h3M61 1h2M59 2h3M59 3h2M57 4h3M57 5h2M55 6h3M55 7h2M53 8h3M53 9h2M51 10h3M51 11h2M49 12h3M49 13h2M47 14h3M47 15h2" fill="#162a32" />
  <path d="M64 0h1M63 1h1M62 2h1M61 3h1M60 4h1M59 5h1M58 6h1M57 7h1M56 8h1M55 9h1M54 10h1M53 11h1M52 12h1M51 13h1M50 14h1M49 15h1M48 16h1" fill="#162b32" />
  <path d="M65 0h4M64 1h5M63 2h4M62 3h5M61 4h4M60 5h5M59 6h4M58 7h5M57 8h4M56 9h5M55 10h4M54 11h5M53 12h4M52 13h5M51 14h4M50 15h5M49 16h4M48 17h5M48 18h3M48 19h3M48 20h1M0 69h1" fill="#162b33" />
  <path d="M69 0h1M67 2h1M65 4h1M63 6h1M61 8h1M59 10h1M57 12h1M55 14h1M53 16h1M51 18h1M49 20h1" fill="#162c33" />
  <path d="M70 0h1M69 1h1M68 2h1M67 3h1M66 4h1M65 5h1M64 6h1M63 7h1M62 8h1M61 9h1M60 10h1M59 11h1M58 12h1M57 13h1M56 14h1M55 15h1M54 16h1M53 17h1M52 18h1M51 19h1M50 20h1M1 69h1M0 70h1" fill="#162c34" />
  <path d="M71 0h4M70 1h4M69 2h4M68 3h4M67 4h4M66 5h4M65 6h4M64 7h4M63 8h4M62 9h4M61 10h4M60 11h4M59 12h4M58 13h4M57 14h4M56 15h4M55 16h4M54 17h4M53 18h4M52 19h4M51 20h4M53 21h1M2 69h3M1 70h4M0 71h4M0 72h3M0 73h2M0 74h1" fill="#172c34" />
  <path d="M75 0h5M74 1h5M73 2h5M72 3h5M71 4h5M70 5h5M69 6h5M68 7h5M67 8h5M66 9h5M65 10h5M64 11h5M63 12h5M62 13h5M61 14h5M60 15h5M59 16h5M58 17h5M57 18h5M56 19h5M55 20h5M54 21h5M53 22h5M53 23h4M53 24h3M53 25h2M53 26h1M4 71h1M3 72h2M2 73h3M1 74h4M0 75h5M0 76h4M0 77h3M0 78h2M0 79h1" fill="#172d35" />
  <path d="M80 0h1M79 1h1M78 2h1M77 3h1M76 4h1M75 5h1M74 6h1M73 7h1M72 8h1M71 9h1M70 10h1M69 11h1M68 12h1M67 13h1M66 14h1M65 15h1M64 16h1M63 17h1M62 18h1M61 19h1M60 20h1M59 21h1M58 22h1M57 23h1M56 24h1M55 25h1M54 26h1M53 27h1M5 75h1M4 76h1M3 77h1M2 78h1M1 79h1M0 80h1" fill="#182d35" />
  <path d="M81 0h6M80 1h6M79 2h6M78 3h6M77 4h6M76 5h6M75 6h6M74 7h6M73 8h6M72 9h6M71 10h6M70 11h6M69 12h6M68 13h6M67 14h6M66 15h6M65 16h6M64 17h6M63 18h6M62 19h6M61 20h6M60 21h6M59 22h6M58 23h6M57 24h6M56 25h6M55 26h6M54 27h6M53 28h6M53 29h5M53 30h4M53 31h3M53 32h2M53 33h1M6 75h4M5 76h5M4 77h6M3 78h6M2 79h6M1 80h6M0 81h6M0 82h5M0 83h4M0 84h3M0 85h2M0 86h1" fill="#182e36" />
  <path d="M87 0h2M86 1h2M85 2h2M84 3h2M83 4h2M82 5h2M81 6h2M80 7h2M79 8h2M78 9h2M77 10h2M76 11h2M75 12h2M74 13h2M73 14h2M72 15h2M71 16h2M70 17h2M69 18h2M68 19h2M67 20h2M66 21h2M65 22h2M64 23h2M63 24h2M62 25h2M61 26h2M60 27h2M59 28h2M58 29h2M57 30h2M56 31h2M55 32h2M54 33h2M53 34h2M53 35h1M9 78h1M8 79h2M7 80h2M6 81h2M5 82h2M4 83h2M3 84h2M2 85h2M1 86h2M0 87h2M0 88h1" fill="#182f37" />
  <path d="M89 0h3M88 1h3M87 2h3M86 3h3M85 4h3M84 5h3M83 6h3M82 7h3M81 8h3M80 9h3M79 10h3M78 11h3M77 12h3M76 13h3M75 14h3M74 15h3M73 16h3M72 17h3M71 18h3M70 19h3M69 20h3M68 21h3M67 22h3M66 23h3M65 24h3M64 25h3M63 26h3M62 27h3M61 28h3M60 29h3M59 30h3M58 31h3M57 32h3M56 33h3M55 34h3M54 35h3M53 36h3M9 80h3M8 81h3M7 82h3M6 83h3M5 84h3M4 85h3M3 86h3M2 87h3M1 88h3M0 89h3M0 90h2M0 91h1" fill="#192f37" />
  <path d="M92 0h1M91 1h1M90 2h1M89 3h1M88 4h1M87 5h1M86 6h1M85 7h1M84 8h1M83 9h1M82 10h1M81 11h1M80 12h1M79 13h1M78 14h1M77 15h1M76 16h1M75 17h1M74 18h1M73 19h1M72 20h1M71 21h1M70 22h1M69 23h1M68 24h1M67 25h1M66 26h1M65 27h1M64 28h1M63 29h1M62 30h1M61 31h1M60 32h1M59 33h1M58 34h1M57 35h1M56 36h1M12 80h1M11 81h1M10 82h1M9 83h1M8 84h1M7 85h1M6 86h1M5 87h1M4 88h1M3 89h1M2 90h1M1 91h1M0 92h1" fill="#192f38" />
  <path d="M93 0h4M92 1h4M91 2h4M90 3h4M89 4h4M88 5h4M87 6h4M86 7h4M85 8h4M84 9h4M83 10h2M82 11h3M81 12h4M80 13h4M79 14h4M78 15h4M77 16h3M76 17h4M75 18h4M74 19h4M73 20h4M72 21h2M71 22h3M70 23h4M69 24h4M68 25h4M67 26h4M66 27h4M65 28h4M64 29h4M63 30h4M62 31h4M61 32h4M60 33h4M59 34h4M58 35h4M57 36h4M13 80h3M12 81h4M11 82h4M10 83h4M9 84h4M8 85h2M7 86h3M6 87h4M5 88h4M4 89h4M3 90h2M2 91h3M1 92h4M0 93h4M0 94h3M0 95h2" fill="#193038" />
  <path d="M97 0h1M96 1h1M95 2h1M94 3h1M93 4h1M92 5h1M91 6h1M90 7h1M89 8h1M88 9h1M84 13h1M83 14h1M82 15h1M79 18h1M78 19h1M77 20h1M73 24h1M72 25h1M71 26h1M70 27h1M69 28h1M68 29h1M67 30h1M66 31h1M65 32h1M64 33h1M63 34h1M62 35h1M61 36h1M15 82h1M14 83h1M13 84h1M9 88h1M8 89h1M4 93h1M3 94h1M2 95h1" fill="#193039" />
  <path d="M98 0h1M97 1h1M96 2h1M95 3h1M94 4h1M93 5h1M92 6h1M91 7h1M90 8h1M89 9h1M84 14h1M83 15h1M79 19h1M78 20h1M73 25h1M72 26h1M71 27h1M70 28h1M69 29h1M68 30h1M67 31h1M66 32h1M65 33h1M64 34h1M63 35h1M62 36h1M15 83h1M14 84h1M9 89h1M4 94h1M3 95h1" fill="#1a3039" />
  <path d="M99 0h4M98 1h4M97 2h4M96 3h4M95 4h4M94 5h4M93 6h4M92 7h4M91 8h4M90 9h4M84 15h1M79 20h1M73 26h1M72 27h2M71 28h3M70 29h4M69 30h4M68 31h4M67 32h4M66 33h4M65 34h4M64 35h4M63 36h4M15 84h1M4 95h1" fill="#1a3139" />
  <path d="M103 0h2M102 1h2M101 2h2M100 3h2M99 4h2M98 5h2M97 6h2M96 7h2M95 8h2M94 9h2M73 30h1M72 31h2M71 32h2M70 33h2M69 34h2M68 35h2M67 36h2" fill="#1a313a" />
  <path d="M105 0h2M104 1h2M103 2h2M102 3h2M101 4h2M100 5h2M99 6h2M98 7h2M97 8h2M96 9h2M73 32h1M72 33h2M71 34h2M70 35h2M69 36h2" fill="#1a323a" />
  <path d="M107 0h2M106 1h1M105 2h2M104 3h1M103 4h2M102 5h1M101 6h2M100 7h1M99 8h2M98 9h1M73 34h1M72 35h1M71 36h2" fill="#1b323a" />
  <path d="M109 0h2M107 1h3M107 2h2M105 3h3M105 4h2M103 5h3M103 6h2M101 7h3M101 8h2M99 9h3M73 35h1M73 36h1" fill="#1b323b" />
  <path d="M111 0h3M110 1h3M109 2h3M108 3h3M107 4h3M106 5h3M105 6h3M104 7h3M103 8h3M102 9h3M0 112h2M0 113h1" fill="#1b333b" />
  <path d="M114 0h2M113 1h2M112 2h2M111 3h2M110 4h2M109 5h2M108 6h2M107 7h2M106 8h2M105 9h2M2 112h2M1 113h2M0 114h2M0 115h1" fill="#1b333c" />
  <path d="M116 0h1M115 1h1M114 2h1M113 3h1M112 4h1M111 5h1M110 6h1M109 7h1M108 8h1M107 9h1M4 112h1M3 113h1M2 114h1M1 115h1M0 116h1" fill="#1c333c" />
  <path d="M117 0h2M116 1h2M115 2h2M114 3h2M113 4h2M112 5h2M111 6h2M110 7h2M109 8h2M108 9h2M107 10h2M107 11h1M4 113h1M3 114h2M2 115h2M1 116h2M0 117h2M0 118h1" fill="#1c343c" />
  <path d="M119 0h4M118 1h4M117 2h4M116 3h4M115 4h4M114 5h4M113 6h4M112 7h4M111 8h4M110 9h4M109 10h4M108 11h4M107 12h4M107 13h3M107 14h2M107 15h1M4 115h1M3 116h2M2 117h4M1 118h4M0 119h4M0 120h3M0 121h2M0 122h1" fill="#1c343d" />
  <path d="M123 0h2M122 1h2M121 2h2M120 3h2M119 4h2M118 5h2M117 6h2M116 7h2M115 8h2M114 9h2M113 10h2M112 11h2M111 12h2M110 13h2M109 14h2M108 15h2M6 117h2M5 118h2M4 119h2M3 120h2M2 121h2M1 122h2M0 123h2M0 124h1" fill="#1c353d" />
  <path d="M125 0h3M124 1h4M123 2h4M122 3h4M121 4h4M120 5h4M119 6h4M118 7h4M117 8h4M116 9h4M115 10h4M114 11h4M113 12h4M112 13h4M111 14h4M110 15h4M112 16h1M8 117h2M7 118h3M6 119h4M5 120h4M4 121h4M3 122h4M2 123h4M1 124h4M0 125h4M0 126h3M0 127h2" fill="#1d353e" />
  <path d="M15 1h1M13 3h1M11 5h1M9 7h1M7 9h1M5 11h1M3 13h1M1 15h1" fill="#10232a" />
  <path d="M42 1h1M40 3h1M38 5h1M36 7h1M34 9h1M8 35h1M4 39h1M2 41h1" fill="#13272f" />
  <path d="M52 1h1M50 3h1M48 5h1M46 7h1M44 9h1" fill="#152930" />
  <path d="M127 2h1M126 3h1M125 4h2M124 5h1M123 6h2M122 7h1M121 8h2M120 9h1M119 10h2M118 11h1M117 12h2M116 13h1M115 14h2M114 15h1M113 16h2M112 17h1M112 18h1M9 120h1M8 121h1M7 122h2M6 123h1M5 124h2M4 125h1M3 126h2M2 127h1" fill="#1d363e" />
  <path d="M127 3h1M127 4h1M125 5h3M125 6h3M123 7h4M123 8h3M121 9h4M121 10h3M119 11h4M119 12h3M117 13h4M117 14h3M115 15h4M115 16h3M113 17h4M113 18h3M112 19h3M112 20h2M9 121h1M9 122h1M7 123h4M7 124h3M5 125h4M5 126h3M3 127h4" fill="#1d363f" />
  <path d="M127 7h1M126 8h1M125 9h1M124 10h1M123 11h1M122 12h1M121 13h1M120 14h1M119 15h1M118 16h1M117 17h1M116 18h1M115 19h1M114 20h1M11 123h1M10 124h1M9 125h1M8 126h1M7 127h1" fill="#1e363f" />
  <path d="M127 8h1M126 9h1M125 10h1M124 11h1M123 12h1M122 13h1M121 14h1M120 15h1M119 16h1M118 17h1M117 18h1M116 19h1M115 20h1M12 123h1M11 124h1M10 125h1M9 126h1M8 127h1" fill="#1e373f" />
  <path d="M127 9h1M126 10h2M125 11h3M124 12h4M123 13h5M122 14h5M121 15h5M120 16h5M119 17h5M118 18h5M117 19h5M116 20h5M117 21h3M117 22h2M117 23h1M13 123h3M12 124h4M11 125h5M10 126h5M9 127h5" fill="#1e3740" />
  <path d="M21 10h1M10 21h1" fill="#152925" />
  <path d="M22 10h2M10 22h1M10 23h1" fill="#152926" />
  <path d="M24 10h2M27 10h3M10 24h1M10 25h1M10 27h1M10 28h1M10 29h1" fill="#152a26" />
  <path d="M26 10h1M10 26h1" fill="#142925" />
  <path d="M30 10h3M10 30h1M10 31h1M10 32h1M0 42h1" fill="#152b26" />
  <path d="M33 10h5M10 34h1M10 35h1M10 36h1M1 42h4" fill="#162b27" />
  <path d="M38 10h4" fill="#162b28" />
  <path d="M42 10h1" fill="#152b2a" />
  <path d="M85 10h2M74 21h1M74 22h1M10 85h1M10 86h1M5 90h2" fill="#19312d" />
  <path d="M87 10h1M74 23h1M10 87h1M7 90h1" fill="#19312e" />
  <path d="M88 10h2M91 10h4M74 24h1M74 25h1M74 27h1M74 28h1M74 29h1M74 30h1M10 88h1M10 89h1M8 90h2" fill="#1a312e" />
  <path d="M90 10h1M74 26h1" fill="#1a312d" />
  <path d="M95 10h2M74 31h1M74 32h1" fill="#1a322e" />
  <path d="M97 10h2M74 33h1M74 34h1" fill="#1b322e" />
  <path d="M99 10h2M74 35h1M74 36h1" fill="#1b322f" />
  <path d="M101 10h3" fill="#1b332f" />
  <path d="M104 10h2" fill="#1b3330" />
  <path d="M106 10h1" fill="#1b3233" />
  <path d="M21 11h5M27 11h15M85 11h5M91 11h15M21 12h5M27 12h15M85 12h5M91 12h15M21 13h5M27 13h15M85 13h5M91 13h15M21 14h5M27 14h15M85 14h5M91 14h15M21 15h5M27 15h15M85 15h5M91 15h15M16 16h5M43 16h5M80 16h5M107 16h5M16 17h5M43 17h5M80 17h5M107 17h5M16 18h5M43 18h5M80 18h5M107 18h5M16 19h5M43 19h5M80 19h5M107 19h5M16 20h5M43 20h5M80 20h5M107 20h5M11 21h5M48 21h5M75 21h5M112 21h5M11 22h5M48 22h5M75 22h5M112 22h5M11 23h5M48 23h5M75 23h5M112 23h5M11 24h5M48 24h5M75 24h5M112 24h5M11 25h5M48 25h5M75 25h5M112 25h5M11 27h5M48 27h5M75 27h5M112 27h5M11 28h5M48 28h5M75 28h5M112 28h5M11 29h5M48 29h5M75 29h5M112 29h5M11 30h5M48 30h5M75 30h5M112 30h5M11 31h5M48 31h5M75 31h5M112 31h5M11 32h5M48 32h5M75 32h5M112 32h5M11 33h5M48 33h5M75 33h5M112 33h5M11 34h5M48 34h5M75 34h5M112 34h5M11 35h5M48 35h5M75 35h5M112 35h5M11 36h5M48 36h5M75 36h5M112 36h5M5 37h5M11 37h5M37 37h5M43 37h15M59 37h15M75 37h5M101 37h5M107 37h10M5 38h5M11 38h5M37 38h5M43 38h15M59 38h15M75 38h5M101 38h5M107 38h10M5 39h5M11 39h5M37 39h5M43 39h15M59 39h15M75 39h5M101 39h5M107 39h10M5 40h5M11 40h5M37 40h5M43 40h15M59 40h15M75 40h5M101 40h5M107 40h10M5 41h5M11 41h5M37 41h5M43 41h15M59 41h15M75 41h5M101 41h5M107 41h10M0 43h5M123 43h5M0 44h5M123 44h5M0 45h5M123 45h5M0 46h5M123 46h5M0 47h5M123 47h5M0 48h5M123 48h5M0 49h5M123 49h5M0 50h5M123 50h5M0 51h5M123 51h5M0 52h5M123 52h5M0 53h5M123 53h5M0 54h5M123 54h5M0 55h5M123 55h5M0 56h5M123 56h5M0 57h5M123 57h5M0 59h5M123 59h5M0 60h5M123 60h5M0 61h5M123 61h5M0 62h5M123 62h5M0 63h5M123 63h5M0 64h5M123 64h5M0 65h5M123 65h5M0 66h5M123 66h5M0 67h5M123 67h5M0 68h5M123 68h5M5 69h5M117 69h5M5 70h5M117 70h5M5 71h5M117 71h5M5 72h5M117 72h5M5 73h5M117 73h5M11 75h5M117 75h5M11 76h5M117 76h5M11 77h5M117 77h5M11 78h5M117 78h5M11 79h5M117 79h5M16 80h10M101 80h5M107 80h5M16 81h10M101 81h5M107 81h5M16 82h10M101 82h5M107 82h5M16 83h10M101 83h5M107 83h5M16 84h10M101 84h5M107 84h5M11 85h5M107 85h10M11 86h5M107 86h10M11 87h5M107 87h10M11 88h5M107 88h10M11 89h5M107 89h10M5 91h5M112 91h5M5 92h5M112 92h5M5 93h5M112 93h5M5 94h5M112 94h5M5 95h5M112 95h5M0 96h5M123 96h5M0 97h5M123 97h5M0 98h5M123 98h5M0 99h5M123 99h5M0 100h5M123 100h5M0 101h5M11 101h15M101 101h5M107 101h10M123 101h5M0 102h5M11 102h15M101 102h5M107 102h10M123 102h5M0 103h5M11 103h15M101 103h5M107 103h10M123 103h5M0 104h5M11 104h15M101 104h5M107 104h10M123 104h5M0 105h5M11 105h15M101 105h5M107 105h10M123 105h5M0 107h5M16 107h10M27 107h15M43 107h15M59 107h15M75 107h15M91 107h15M107 107h5M123 107h5M0 108h5M16 108h10M27 108h15M43 108h15M59 108h15M75 108h15M91 108h15M107 108h5M123 108h5M0 109h5M16 109h10M27 109h15M43 109h15M59 109h15M75 109h15M91 109h15M107 109h5M123 109h5M0 110h5M16 110h10M27 110h15M43 110h15M59 110h15M75 110h15M91 110h15M107 110h5M123 110h5M0 111h5M16 111h10M27 111h15M43 111h15M59 111h15M75 111h15M91 111h15M107 111h5M123 111h5M5 112h5M117 112h5M5 113h5M117 113h5M5 114h5M117 114h5M5 115h5M117 115h5M5 116h5M117 116h5M11 117h5M112 117h5M11 118h5M112 118h5M11 119h5M112 119h5M11 120h5M112 120h5M11 121h5M112 121h5M16 123h10M27 123h15M43 123h15M59 123h15M75 123h15M91 123h15M107 123h5M16 124h10M27 124h15M43 124h15M59 124h15M75 124h15M91 124h15M107 124h5M16 125h10M27 125h15M43 125h15M59 125h15M75 125h15M91 125h15M107 125h5M16 126h10M27 126h15M43 126h15M59 126h15M75 126h15M91 126h15M107 126h5M16 127h10M27 127h15M43 127h15M59 127h15M75 127h15M91 127h15M107 127h5" fill="#1b3519" />
  <path d="M26 11h1M26 12h1M26 13h1M26 14h1M26 15h1M11 26h5" fill="#19301c" />
  <path d="M42 11h1" fill="#18301f" />
  <path d="M90 11h1M90 12h1M75 26h2M58 41h1" fill="#1a331e" />
  <path d="M106 11h1M106 12h1" fill="#1b3423" />
  <path d="M42 12h1M42 13h1M42 14h1M42 15h1" fill="#183020" />
  <path d="M90 13h1M90 14h1M90 15h1M77 26h3M74 37h1M74 38h1M74 39h1M74 40h1M74 41h1M0 106h5" fill="#1a331f" />
  <path d="M106 13h1M106 14h1M106 15h1M11 122h2" fill="#1b3424" />
  <path d="M127 14h1M126 15h2M125 16h2M124 17h2M123 18h2M122 19h2M121 20h2M120 21h2M119 22h2M118 23h2M117 24h2M117 25h1M15 126h1M14 127h2" fill="#1e3841" />
  <path d="M21 16h5M27 16h15M85 16h5M91 16h15M21 17h5M27 17h15M85 17h5M91 17h15M21 18h5M27 18h15M85 18h5M91 18h15M21 19h5M27 19h15M85 19h5M91 19h15M21 20h5M27 20h15M85 20h5M91 20h15M16 21h5M43 21h5M80 21h5M107 21h5M16 22h5M43 22h5M80 22h5M107 22h5M16 23h5M43 23h5M80 23h5M107 23h5M16 24h5M43 24h5M80 24h5M107 24h5M16 25h5M43 25h5M80 25h5M107 25h5M16 27h5M43 27h5M80 27h5M107 27h5M16 28h5M43 28h5M80 28h5M107 28h5M16 29h5M43 29h5M80 29h5M107 29h5M16 30h5M43 30h5M80 30h5M107 30h5M16 31h5M43 31h5M80 31h5M107 31h5M16 32h5M43 32h5M80 32h5M107 32h5M16 33h5M43 33h5M80 33h5M107 33h5M16 34h5M43 34h5M80 34h5M107 34h5M16 35h5M43 35h5M80 35h5M107 35h5M16 36h5M43 36h5M80 36h5M107 36h5M16 37h10M27 37h10M80 37h10M91 37h10M16 38h10M27 38h10M80 38h10M91 38h10M16 39h10M27 39h10M80 39h10M91 39h10M16 40h10M27 40h10M80 40h10M91 40h10M16 41h10M27 41h10M80 41h10M91 41h10M5 43h5M11 43h15M27 43h15M43 43h15M59 43h15M75 43h15M91 43h15M107 43h15M5 44h5M11 44h15M27 44h15M43 44h15M59 44h15M75 44h15M91 44h15M107 44h15M5 45h5M11 45h15M27 45h15M43 45h15M59 45h15M75 45h15M91 45h15M107 45h15M5 46h5M11 46h15M27 46h15M43 46h15M59 46h15M75 46h15M91 46h15M107 46h15M5 47h5M11 47h15M27 47h15M43 47h15M59 47h15M75 47h15M91 47h15M107 47h15M5 48h5M117 48h5M5 49h5M117 49h5M5 50h5M117 50h5M5 51h5M117 51h5M5 52h5M117 52h5M5 53h5M117 53h5M5 54h5M117 54h5M5 55h5M117 55h5M5 56h5M117 56h5M5 57h5M117 57h5M5 59h5M27 59h10M43 59h5M53 59h5M59 59h15M80 59h5M91 59h5M117 59h5M5 60h5M27 60h10M43 60h5M53 60h5M59 60h15M80 60h5M91 60h5M117 60h5M5 61h5M27 61h10M43 61h5M53 61h5M59 61h15M80 61h5M91 61h5M117 61h5M5 62h5M27 62h10M43 62h5M53 62h5M59 62h15M80 62h5M91 62h5M117 62h5M5 63h5M27 63h10M43 63h5M53 63h5M59 63h15M80 63h5M91 63h5M117 63h5M5 64h5M21 64h5M27 64h5M43 64h10M117 64h5M5 65h5M21 65h5M27 65h5M43 65h10M117 65h5M5 66h5M21 66h5M27 66h5M43 66h10M117 66h5M5 67h5M21 67h5M27 67h5M43 67h10M117 67h5M5 68h5M21 68h5M27 68h5M43 68h10M117 68h5M11 69h5M27 69h10M48 69h5M69 69h5M96 69h5M112 69h5M11 70h5M27 70h10M48 70h5M69 70h5M96 70h5M112 70h5M11 71h5M27 71h10M48 71h5M69 71h5M96 71h5M112 71h5M11 72h5M27 72h10M48 72h5M69 72h5M96 72h5M112 72h5M11 73h5M27 73h10M48 73h5M69 73h5M96 73h5M112 73h5M16 75h5M101 75h5M112 75h5M16 76h5M101 76h5M112 76h5M16 77h5M101 77h5M112 77h5M16 78h5M101 78h5M112 78h5M16 79h5M101 79h5M112 79h5M27 80h5M96 80h5M27 81h5M96 81h5M27 82h5M96 82h5M27 83h5M96 83h5M27 84h5M96 84h5M16 85h10M27 85h5M91 85h15M16 86h10M27 86h5M91 86h15M16 87h10M27 87h5M91 87h15M16 88h10M27 88h5M91 88h15M16 89h10M27 89h5M91 89h15M11 91h15M27 91h15M43 91h10M64 91h5M75 91h15M91 91h15M107 91h5M11 92h15M27 92h15M43 92h10M64 92h5M75 92h15M91 92h15M107 92h5M11 93h15M27 93h15M43 93h10M64 93h5M75 93h15M91 93h15M107 93h5M11 94h15M27 94h15M43 94h10M64 94h5M75 94h15M91 94h15M107 94h5M11 95h15M27 95h15M43 95h10M64 95h5M75 95h15M91 95h15M107 95h5M5 96h5M11 96h15M27 96h15M43 96h15M59 96h15M75 96h15M91 96h15M107 96h15M5 97h5M11 97h15M27 97h15M43 97h15M59 97h15M75 97h15M91 97h15M107 97h15M5 98h5M11 98h15M27 98h15M43 98h15M59 98h15M75 98h15M91 98h15M107 98h15M5 99h5M11 99h15M27 99h15M43 99h15M59 99h15M75 99h15M91 99h15M107 99h15M5 100h5M11 100h15M27 100h15M43 100h15M59 100h15M75 100h15M91 100h15M107 100h15M5 101h5M27 101h15M43 101h15M59 101h15M75 101h15M91 101h10M117 101h5M5 102h5M27 102h15M43 102h15M59 102h15M75 102h15M91 102h10M117 102h5M5 103h5M27 103h15M43 103h15M59 103h15M75 103h15M91 103h10M117 103h5M5 104h5M27 104h15M43 104h15M59 104h15M75 104h15M91 104h10M117 104h5M5 105h5M27 105h15M43 105h15M59 105h15M75 105h15M91 105h10M117 105h5M5 107h5M11 107h5M112 107h10M5 108h5M11 108h5M112 108h10M5 109h5M11 109h5M112 109h10M5 110h5M11 110h5M112 110h10M5 111h5M11 111h5M112 111h10M11 112h15M27 112h15M43 112h15M59 112h15M75 112h15M91 112h15M107 112h10M11 113h15M27 113h15M43 113h15M59 113h15M75 113h15M91 113h15M107 113h10M11 114h15M27 114h15M43 114h15M59 114h15M75 114h15M91 114h15M107 114h10M11 115h15M27 115h15M43 115h15M59 115h15M75 115h15M91 115h15M107 115h10M11 116h15M27 116h15M43 116h15M59 116h15M75 116h15M91 116h15M107 116h10M16 117h10M27 117h15M43 117h15M59 117h15M75 117h15M91 117h15M107 117h5M16 118h10M27 118h15M43 118h15M59 118h15M75 118h15M91 118h15M107 118h5M16 119h10M27 119h15M43 119h15M59 119h15M75 119h15M91 119h15M107 119h5M16 120h10M27 120h15M43 120h15M59 120h15M75 120h15M91 120h15M107 120h5M16 121h10M27 121h15M43 121h15M59 121h15M75 121h15M91 121h15M107 121h5" fill="#478f3d" />
  <path d="M26 16h1M26 17h1M26 18h1M26 19h1M26 20h1M16 26h5M10 43h1" fill="#3a7838" />
  <path d="M42 16h1M42 17h1M42 18h1M42 19h1" fill="#2c592d" />
  <path d="M90 16h1M90 17h1M90 18h1M90 19h1M90 20h1M80 26h5M58 45h1M58 46h1M58 47h1M26 85h1M26 86h1M26 87h1M26 88h1M26 89h1M16 90h10M10 96h1M10 97h1M10 98h1M10 99h1M10 100h1M5 106h5" fill="#3b7a3b" />
  <path d="M106 16h1M106 17h1M106 18h1M106 19h1M106 20h1M27 106h2" fill="#2e5c30" />
  <path d="M127 16h1M126 17h2M125 18h3M124 19h3M123 20h4M122 21h3M121 22h4M120 23h3M119 24h4M118 25h3M117 26h4M117 27h2M117 28h2" fill="#1f3841" />
  <path d="M127 19h1M125 21h1M123 23h1M121 25h1M119 27h1M117 29h1" fill="#1f3941" />
  <path d="M42 20h1" fill="#2d592d" />
  <path d="M127 20h1M126 21h2M125 22h3M124 23h4M123 24h5M122 25h5M121 26h5M120 27h5M119 28h5M118 29h5M117 30h5M117 31h4M117 32h3M117 33h2M117 34h1" fill="#1f3942" />
  <path d="M21 21h5M27 21h15M85 21h5M91 21h15M21 22h5M27 22h15M85 22h5M91 22h15M21 23h5M27 23h15M85 23h5M91 23h15M21 24h5M27 24h15M85 24h5M91 24h15M21 25h5M27 25h15M85 25h5M91 25h15M21 27h5M37 27h5M85 27h5M101 27h5M21 28h5M37 28h5M85 28h5M101 28h5M21 29h5M37 29h5M85 29h5M101 29h5M21 30h5M37 30h5M85 30h5M101 30h5M21 31h5M37 31h5M85 31h5M101 31h5M21 32h5M37 32h5M85 32h5M101 32h5M21 33h5M37 33h5M85 33h5M101 33h5M21 34h5M37 34h5M85 34h5M101 34h5M21 35h5M37 35h5M85 35h5M101 35h5M21 36h5M37 36h5M85 36h5M101 36h5M11 48h15M27 48h15M43 48h5M53 48h5M59 48h15M75 48h15M91 48h15M107 48h10M11 49h15M27 49h15M43 49h5M53 49h5M59 49h15M75 49h15M91 49h15M107 49h10M11 50h15M27 50h15M43 50h5M53 50h5M59 50h15M75 50h15M91 50h15M107 50h10M11 51h15M27 51h15M43 51h5M53 51h5M59 51h15M75 51h15M91 51h15M107 51h10M11 52h15M27 52h15M43 52h5M53 52h5M59 52h15M75 52h15M91 52h15M107 52h10M11 53h15M27 53h15M53 53h5M59 53h15M75 53h15M91 53h15M107 53h10M11 54h15M27 54h15M53 54h5M59 54h15M75 54h15M91 54h15M107 54h10M11 55h15M27 55h15M53 55h5M59 55h15M75 55h15M91 55h15M107 55h10M11 56h15M27 56h15M53 56h5M59 56h15M75 56h15M91 56h15M107 56h10M11 57h15M27 57h15M53 57h5M59 57h15M75 57h15M91 57h15M107 57h10M11 59h15M96 59h10M107 59h10M11 60h15M96 60h10M107 60h10M11 61h15M96 61h10M107 61h10M11 62h15M96 62h10M107 62h10M11 63h15M96 63h10M107 63h10M11 64h10M101 64h5M107 64h10M11 65h10M101 65h5M107 65h10M11 66h10M101 66h5M107 66h10M11 67h10M101 67h5M107 67h10M11 68h10M101 68h5M107 68h10M16 69h10M101 69h5M107 69h5M16 70h10M101 70h5M107 70h5M16 71h10M101 71h5M107 71h5M16 72h10M101 72h5M107 72h5M16 73h10M101 73h5M107 73h5M21 75h5M27 75h5M107 75h5M21 76h5M27 76h5M107 76h5M21 77h5M27 77h5M107 77h5M21 78h5M27 78h5M107 78h5M21 79h5M27 79h5M107 79h5" fill="#73b769" />
  <path d="M26 21h1M26 22h1M26 23h1M26 24h1M26 25h1M21 26h5" fill="#5d975b" />
  <path d="M42 21h1M42 22h1M42 23h1M42 24h1M42 25h1M42 27h1" fill="#4f8a4d" />
  <path d="M90 21h1M90 22h1M90 23h1M90 24h1M90 25h1M85 26h5M58 48h1M58 49h1M58 50h1M58 51h1M58 52h1M58 53h1M58 54h1M58 55h1M58 56h1M58 57h1M26 77h1M26 78h1M26 79h1" fill="#5e995e" />
  <path d="M106 21h1M106 22h1M106 23h1M106 24h1M106 25h1M106 27h1M106 28h1M61 58h13" fill="#508c50" />
  <path d="M127 25h1M126 26h1M125 27h1M124 28h1M123 29h1M122 30h1M121 31h1M120 32h1M119 33h1M118 34h1M117 35h1" fill="#203a43" />
  <path d="M26 26h1" fill="#659367" />
  <path d="M27 26h8M26 28h1M26 29h1M26 30h1M26 31h1M26 32h1M26 33h1M26 34h1M26 35h1" fill="#8caf8e" />
  <path d="M35 26h2M26 36h1" fill="#8daf8e" />
  <path d="M37 26h5M11 58h1" fill="#5e975c" />
  <path d="M42 26h1" fill="#4a824b" />
  <path d="M43 26h1M26 38h1M26 39h1M26 40h1M26 41h1M22 42h4M27 42h1M26 43h1M6 58h4" fill="#3b7939" />
  <path d="M44 26h4M28 42h9M26 44h1M26 45h1M26 46h1M26 47h1" fill="#3b793a" />
  <path d="M48 26h5M42 37h1M42 38h1" fill="#19311e" />
  <path d="M90 26h1" fill="#66966b" />
  <path d="M91 26h2M90 27h1M90 28h1" fill="#8eb190" />
  <path d="M93 26h8M90 29h1M90 30h1M90 31h1M90 32h1M90 33h1M90 34h1M90 35h1M90 36h1" fill="#8eb191" />
  <path d="M101 26h5M74 48h1M74 49h1M74 50h1M74 51h1M74 52h1M74 53h1M74 54h1M74 55h1M74 56h1M74 57h1" fill="#5f995f" />
  <path d="M106 26h1" fill="#4c844f" />
  <path d="M107 26h2M90 37h1M90 38h1M90 39h1M90 40h1M90 41h1M80 42h10M91 42h2M90 43h1M90 44h1M74 45h1M74 46h1M74 47h1M58 61h1M58 62h1M58 63h1M29 90h3M42 91h1M42 92h1M26 93h1M26 94h1M26 95h1M26 96h1M26 97h1M26 98h1M26 99h1M26 100h1M10 109h1M10 110h1M10 111h1" fill="#3c7b3c" />
  <path d="M109 26h3M93 42h8M90 45h1M90 46h1M90 47h1M42 93h1M42 94h1M42 95h1M42 96h1M42 97h1M42 98h1M42 99h1M42 100h1M26 112h1M26 113h1M26 114h1M26 115h1M26 116h1" fill="#3c7c3c" />
  <path d="M112 26h5M106 37h1M106 38h1M106 39h1M106 40h1M106 41h1M42 107h1M42 108h1M26 109h1M42 109h1M26 110h1M26 111h1M26 123h1M26 124h1M26 125h1" fill="#1b3420" />
  <path d="M127 26h1M126 27h1M125 28h1M124 29h1M123 30h1M122 31h1M121 32h1M120 33h1M119 34h1M118 35h1M117 36h1" fill="#203b42" />
  <path d="M26 27h1" fill="#8caf8d" />
  <path d="M27 27h10M91 27h10M27 28h10M91 28h10M27 29h10M91 29h10M27 30h10M91 30h10M27 31h10M91 31h10M27 32h5M91 32h5M27 33h5M91 33h5M27 34h5M91 34h5M27 35h5M91 35h5M27 36h5M91 36h5M48 48h5M48 49h5M48 50h5M48 51h5M48 52h5M43 53h10M43 54h10M43 55h10M43 56h10M43 57h10" fill="#ffffff" />
  <path d="M127 27h1M126 28h1M125 29h1M124 30h1M123 31h1M122 32h1M121 33h1M120 34h1M119 35h1M118 36h1M117 37h1" fill="#203d42" />
  <path d="M42 28h1M42 29h1M42 30h1M42 31h1M42 32h1M42 33h1M42 34h1M42 35h1M42 36h1" fill="#4f8a4e" />
  <path d="M127 28h1M126 29h1M125 30h1M124 31h1M123 32h1M122 33h1M121 34h1M120 35h1M119 36h1M118 37h1M117 38h1" fill="#203f41" />
  <path d="M106 29h1M106 30h1M106 31h1M106 32h1M106 33h1M106 34h1M106 35h1M106 36h1M80 58h5" fill="#508d50" />
  <path d="M127 29h1M126 30h1M125 31h1M124 32h1M123 33h1M122 34h1M121 35h1M120 36h1M119 37h1M118 38h1M117 39h1" fill="#204141" />
  <path d="M127 30h1M126 31h1M125 32h1M124 33h1M123 34h1M122 35h1M121 36h1M120 37h1M119 38h1M118 39h1M117 40h1" fill="#214340" />
  <path d="M127 31h1M126 32h1M125 33h1M124 34h1M123 35h1M122 36h1M121 37h1M120 38h1M119 39h1M118 40h1M117 41h1" fill="#214440" />
  <path d="M32 32h5M96 32h5M32 33h5M96 33h5M32 34h5M96 34h5M32 35h5M96 35h5M32 36h5M96 36h5M48 59h5M75 59h5M48 60h5M75 60h5M48 61h5M75 61h5M48 62h5M75 62h5M48 63h5M75 63h5M53 64h5M59 64h15M75 64h10M53 65h5M59 65h15M75 65h10M53 66h5M59 66h15M75 66h10M53 67h5M59 67h15M75 67h10M53 68h5M59 68h15M75 68h10M85 69h5M85 70h5M85 71h5M85 72h5M85 73h5M53 75h5M64 75h5M85 75h5M53 76h5M64 76h5M85 76h5M53 77h5M64 77h5M85 77h5M53 78h5M64 78h5M85 78h5M53 79h5M64 79h5M85 79h5" fill="#111216" />
  <path d="M127 32h1M126 33h1M125 34h1M124 35h1M123 36h1M121 38h1M120 39h1M119 40h1M118 41h1" fill="#214640" />
  <path d="M10 33h1" fill="#152b27" />
  <path d="M127 33h1M126 34h1M125 35h1M124 36h1M121 39h1M120 40h1M119 41h1" fill="#21483f" />
  <path d="M127 34h1M126 35h1M125 36h1M121 40h1M120 41h1" fill="#224a3f" />
  <path d="M127 35h1M126 36h1M121 41h1" fill="#224c3e" />
  <path d="M127 36h1" fill="#224e3e" />
  <path d="M10 37h1M10 38h1M10 39h1M10 40h1M10 41h1" fill="#19311c" />
  <path d="M26 37h1M19 42h3M5 58h1" fill="#3b7839" />
  <path d="M58 37h1M58 38h1M58 39h1M58 40h1" fill="#1a321e" />
  <path d="M122 37h1" fill="#162e2a" />
  <path d="M123 37h5M123 38h5M123 39h5M123 40h5M123 41h5" fill="#000000" />
  <path d="M122 38h1" fill="#16302a" />
  <path d="M42 39h1M42 40h1M42 41h1" fill="#19321e" />
  <path d="M122 39h1" fill="#16312a" />
  <path d="M122 40h1" fill="#163229" />
  <path d="M122 41h1" fill="#163429" />
  <path d="M5 42h5" fill="#275028" />
  <path d="M10 42h1" fill="#244a27" />
  <path d="M11 42h5" fill="#275029" />
  <path d="M16 42h3M10 44h1M10 45h1M10 46h1M10 47h1" fill="#3a7839" />
  <path d="M26 42h1" fill="#366f36" />
  <path d="M37 42h2M10 69h1M10 70h1" fill="#27502a" />
  <path d="M39 42h3M43 42h4M10 71h1M10 72h1M10 73h1" fill="#27512a" />
  <path d="M42 42h1" fill="#264c2a" />
  <path d="M47 42h10" fill="#28512a" />
  <path d="M57 42h1M59 42h2M11 90h2M10 91h1M10 92h1" fill="#28522a" />
  <path d="M58 42h1" fill="#274e2a" />
  <path d="M61 42h13M26 80h1M26 81h1M26 82h1M26 83h1M26 84h1M13 90h3M10 93h1M10 94h1M10 95h1" fill="#28522b" />
  <path d="M74 42h1" fill="#284e2c" />
  <path d="M75 42h2M11 106h2" fill="#29522b" />
  <path d="M77 42h3M26 101h1M26 102h1M26 103h1M26 104h1M26 105h1M13 106h3M10 112h1M10 113h1M10 114h1M10 115h1M10 116h1" fill="#29522c" />
  <path d="M90 42h1" fill="#38723a" />
  <path d="M101 42h5M107 42h3" fill="#29532c" />
  <path d="M106 42h1" fill="#28502e" />
  <path d="M110 42h1" fill="#29542d" />
  <path d="M111 42h3" fill="#29542c" />
  <path d="M114 42h1" fill="#29552c" />
  <path d="M115 42h2" fill="#29562c" />
  <path d="M117 42h1" fill="#2d5e3e" />
  <path d="M118 42h1" fill="#2d603e" />
  <path d="M119 42h1" fill="#2d613e" />
  <path d="M120 42h1" fill="#2d623d" />
  <path d="M121 42h1" fill="#2d643d" />
  <path d="M122 42h1" fill="#224c2d" />
  <path d="M123 42h1" fill="#102315" />
  <path d="M124 42h2" fill="#102314" />
  <path d="M126 42h2" fill="#102414" />
  <path d="M42 43h1M58 43h1M42 44h1M58 44h1M42 45h1M42 46h1M42 47h1M26 64h1M26 65h1M26 66h1M26 67h1M26 68h1" fill="#3b7a3a" />
  <path d="M74 43h1M74 44h1M58 59h1M58 60h1M27 90h2M26 91h1M26 92h1M10 107h1M10 108h1" fill="#3c7b3b" />
  <path d="M106 43h1M106 44h1M106 45h1M106 47h1M42 101h1M42 102h1M42 103h1M42 104h1M42 105h1M26 117h1M26 118h1M26 119h1M26 120h1M26 121h1" fill="#3d7c3c" />
  <path d="M122 43h1M59 106h1M43 122h1" fill="#2f6330" />
  <path d="M122 44h1M122 45h1M60 106h2M44 122h2" fill="#2f632f" />
  <path d="M106 46h1" fill="#3d7c3d" />
  <path d="M122 46h1M122 47h1M62 106h2M46 122h2" fill="#2f642f" />
  <path d="M10 48h1M10 49h1M10 50h1M10 51h1" fill="#498548" />
  <path d="M26 48h1M26 49h1M26 50h1M26 51h1M26 52h1M26 53h1M26 54h1M12 58h11" fill="#5e975d" />
  <path d="M42 48h1M42 49h1M42 50h1M42 51h1M42 52h1M26 55h1M26 56h1M26 57h1M23 58h3M21 74h4" fill="#5e985d" />
  <path d="M90 48h1M90 49h1M90 50h1M90 51h1M90 52h1" fill="#5f9a5f" />
  <path d="M106 48h1M106 49h1M96 58h2" fill="#609b5f" />
  <path d="M122 48h1M122 49h1M122 50h1M64 106h3M48 122h3" fill="#2f652f" />
  <path d="M106 50h1M98 58h1" fill="#609c5f" />
  <path d="M106 51h1M106 52h1M106 53h1M106 54h1M99 58h4" fill="#609d5f" />
  <path d="M122 51h1M122 52h1M67 106h2M51 122h2" fill="#30662e" />
  <path d="M10 52h1M10 53h1" fill="#4a8548" />
  <path d="M42 53h1M42 54h1M42 55h1M42 56h1" fill="#93ba93" />
  <path d="M90 53h1M90 54h1M90 55h1M90 56h1M90 57h1" fill="#609a5f" />
  <path d="M122 53h1M122 54h1M122 55h1M69 106h3M53 122h3" fill="#30672e" />
  <path d="M10 54h1M10 55h1M10 56h1M10 57h1M10 59h1" fill="#4a8648" />
  <path d="M106 55h1M103 58h1" fill="#609e5f" />
  <path d="M106 56h1M106 57h1M104 58h2" fill="#609f5f" />
  <path d="M122 56h1M72 106h1M56 122h1" fill="#30682e" />
  <path d="M42 57h1" fill="#93bb93" />
  <path d="M122 57h1M122 59h1M73 106h1M75 106h1M57 122h1M59 122h1" fill="#30692e" />
  <path d="M0 58h5" fill="#19311d" />
  <path d="M10 58h1" fill="#427943" />
  <path d="M26 58h1" fill="#518953" />
  <path d="M27 58h10M26 59h1M26 60h1M26 61h1M26 62h1M26 63h1M26 69h1M26 70h1M26 71h1M26 72h1M16 74h5" fill="#4f8b4e" />
  <path d="M37 58h4" fill="#8d8468" />
  <path d="M41 58h1" fill="#8d8568" />
  <path d="M42 58h1" fill="#8d9a7d" />
  <path d="M43 58h2" fill="#c5d9c4" />
  <path d="M45 58h3" fill="#c5d9c5" />
  <path d="M48 58h5" fill="#88968a" />
  <path d="M53 58h5" fill="#4f8c4f" />
  <path d="M58 58h1" fill="#49824c" />
  <path d="M59 58h2" fill="#508c4f" />
  <path d="M74 58h1" fill="#427546" />
  <path d="M75 58h2" fill="#3a633c" />
  <path d="M77 58h3" fill="#3a643c" />
  <path d="M85 58h5" fill="#8f866a" />
  <path d="M90 58h1" fill="#6f815c" />
  <path d="M91 58h3" fill="#518d50" />
  <path d="M94 58h1" fill="#518e51" />
  <path d="M95 58h1" fill="#518e50" />
  <path d="M106 58h1" fill="#58965a" />
  <path d="M107 58h1M106 59h1" fill="#60a05f" />
  <path d="M108 58h1M106 60h1" fill="#60a05e" />
  <path d="M109 58h3M106 61h1M106 62h1M106 63h1" fill="#60a15e" />
  <path d="M112 58h2M106 64h1M106 65h1" fill="#60a25e" />
  <path d="M114 58h1M106 66h1" fill="#60a35e" />
  <path d="M115 58h2M106 67h1M106 68h1" fill="#61a35d" />
  <path d="M117 58h3M74 101h1M74 102h1M74 103h1M58 117h1M58 118h1M58 119h1" fill="#3e863a" />
  <path d="M120 58h1M74 104h1M58 120h1" fill="#3e873a" />
  <path d="M121 58h1M91 90h1M90 91h1M74 105h1M58 121h1" fill="#3e883a" />
  <path d="M122 58h1" fill="#2f6c2e" />
  <path d="M123 58h3M74 107h1M74 108h1M74 109h1M58 123h1M58 124h1M58 125h1" fill="#1d411e" />
  <path d="M126 58h2M74 110h1M74 111h1M58 126h1M58 127h1" fill="#1d421e" />
  <path d="M37 59h5M85 59h5M37 60h5M85 60h5M37 61h5M85 61h5M37 62h5M85 62h5M37 63h5M85 63h5M32 64h10M32 65h10M32 66h10M32 67h10M32 68h10" fill="#ff7b89" />
  <path d="M42 59h1M42 60h1" fill="#8e715d" />
  <path d="M74 59h1M74 60h1M74 61h1M74 62h1M74 63h1" fill="#2d582f" />
  <path d="M90 59h1M90 60h1M90 61h1" fill="#8f725f" />
  <path d="M10 60h1M10 61h1M10 62h1M10 63h1M10 64h1M10 65h1M10 66h1M10 67h1M10 68h1" fill="#4a8649" />
  <path d="M122 60h1M122 61h1M76 106h2M60 122h2" fill="#306a2e" />
  <path d="M42 61h1M42 62h1M42 63h1M42 64h1M42 65h1M42 66h1M42 67h1M42 68h1" fill="#8e715e" />
  <path d="M90 62h1" fill="#8f7360" />
  <path d="M122 62h1M78 106h1M62 122h1" fill="#306b2e" />
  <path d="M90 63h1" fill="#8f735f" />
  <path d="M122 63h1M79 106h1M63 122h1" fill="#316b2e" />
  <path d="M58 64h1M58 65h1M58 66h1M58 67h1M58 68h1" fill="#19281d" />
  <path d="M74 64h1M74 65h1M74 66h1M74 67h1M74 68h1" fill="#19291d" />
  <path d="M85 64h5M91 64h10M85 65h5M91 65h10M85 66h5M91 66h10M85 67h5M91 67h10M85 68h5M91 68h10M80 69h5M91 69h5M80 70h5M91 70h5M80 71h5M91 71h5M80 72h5M91 72h5M80 73h5M91 73h5" fill="#ecc844" />
  <path d="M90 64h1M90 65h1M90 66h1M90 67h1M90 68h1" fill="#e5b44e" />
  <path d="M122 64h1M80 106h1M64 122h1" fill="#316b2d" />
  <path d="M122 65h1M122 66h1M81 106h2M65 122h2" fill="#316c2d" />
  <path d="M122 67h1M122 68h1M106 85h1M83 106h3M67 122h3" fill="#316d2d" />
  <path d="M37 69h5M43 69h5M53 69h5M59 69h10M75 69h5M37 70h5M43 70h5M53 70h5M59 70h10M75 70h5M37 71h5M43 71h5M53 71h5M59 71h10M75 71h5M37 72h5M43 72h5M53 72h5M59 72h10M75 72h5M37 73h5M43 73h5M53 73h5M59 73h10M75 73h5M32 75h10M43 75h5M75 75h10M91 75h10M32 76h10M43 76h5M75 76h10M91 76h10M32 77h10M43 77h5M75 77h10M91 77h10M32 78h10M43 78h5M75 78h10M91 78h10M32 79h10M43 79h5M75 79h10M91 79h10M32 80h10M80 80h10M91 80h5M32 81h10M80 81h10M91 81h5M32 82h10M80 82h10M91 82h5M32 83h10M80 83h10M91 83h5M32 84h10M80 84h10M91 84h5M32 85h10M43 85h15M59 85h15M75 85h15M32 86h10M43 86h15M59 86h15M75 86h15M32 87h10M43 87h15M59 87h15M75 87h15M32 88h10M43 88h15M59 88h15M75 88h15M32 89h10M43 89h15M59 89h15M75 89h15M53 91h5M59 91h5M69 91h5M53 92h5M59 92h5M69 92h5M53 93h5M59 93h5M69 93h5M53 94h5M59 94h5M69 94h5M53 95h5M59 95h5M69 95h5" fill="#def0d5" />
  <path d="M42 69h1M42 70h1M42 71h1M42 72h1M42 73h1M37 74h5" fill="#b2c6b3" />
  <path d="M58 69h1M58 70h1M58 71h1M58 72h1M58 73h1M43 74h5M42 75h1M42 76h1M42 77h1M42 78h1M42 79h1M42 85h1M42 86h1M42 87h1M42 88h1M42 89h1" fill="#b3c6b3" />
  <path d="M74 69h1M74 70h1M74 71h1M74 72h1M74 73h1" fill="#709c6f" />
  <path d="M90 69h1M90 70h1" fill="#6f6d37" />
  <path d="M106 69h1" fill="#61a45d" />
  <path d="M122 69h1" fill="#1f4e20" />
  <path d="M123 69h1M112 80h1" fill="#298630" />
  <path d="M124 69h1M123 70h1M113 80h1M112 81h1" fill="#2a8830" />
  <path d="M125 69h1M124 70h1M123 71h1M114 80h1M113 81h1M112 82h1" fill="#2a8a2f" />
  <path d="M126 69h1M125 70h1M124 71h1M123 72h1M115 80h1M114 81h1M113 82h1M112 83h1" fill="#2a8c2f" />
  <path d="M127 69h1M126 70h1M125 71h1M124 72h1M123 73h1M116 80h1M115 81h1M114 82h1M113 83h1M112 84h1" fill="#2a8e2f" />
  <path d="M106 70h1M106 71h1M106 72h1" fill="#61a55d" />
  <path d="M122 70h1" fill="#1f4f1f" />
  <path d="M127 70h1M126 71h1M125 72h1M124 73h1M123 74h1M117 80h1M116 81h1M115 82h1M114 83h1M113 84h1" fill="#2b902e" />
  <path d="M90 71h1M90 72h1M90 73h1" fill="#6f6e37" />
  <path d="M122 71h1M122 72h1" fill="#1f501f" />
  <path d="M127 71h1M126 72h1M125 73h1M124 74h1M123 75h1M118 80h1M117 81h1M116 82h1M115 83h1M114 84h1" fill="#2b912e" />
  <path d="M127 72h1M126 73h1M125 74h1M124 75h1M123 76h1M119 80h1M118 81h1M117 82h1M116 83h1M115 84h1" fill="#2b932d" />
  <path d="M26 73h1" fill="#4f8c4e" />
  <path d="M106 73h1" fill="#61a65d" />
  <path d="M122 73h1" fill="#1f511f" />
  <path d="M127 73h1M126 74h1M125 75h1M124 76h1M123 77h1M120 80h1M119 81h1M118 82h1M117 83h1M116 84h1" fill="#2b952d" />
  <path d="M5 74h2" fill="#193121" />
  <path d="M7 74h3" fill="#193221" />
  <path d="M10 74h1" fill="#214229" />
  <path d="M11 74h5" fill="#2d5b2e" />
  <path d="M25 74h1M26 75h1M26 76h1" fill="#5e995d" />
  <path d="M26 74h1" fill="#4f8752" />
  <path d="M27 74h2" fill="#4a8749" />
  <path d="M29 74h3" fill="#4a874a" />
  <path d="M32 74h5" fill="#6e9a6e" />
  <path d="M42 74h1" fill="#a3b7a7" />
  <path d="M48 74h5" fill="#9f7569" />
  <path d="M53 74h5" fill="#7c8a7e" />
  <path d="M58 74h1" fill="#8f8681" />
  <path d="M59 74h3M42 80h1M42 81h1M42 82h1M42 83h1M42 84h1" fill="#cc9296" />
  <path d="M62 74h2" fill="#cc9297" />
  <path d="M64 74h5" fill="#7c8a7f" />
  <path d="M69 74h5" fill="#9f7669" />
  <path d="M74 74h1" fill="#9c877c" />
  <path d="M75 74h3M58 85h1M58 86h1M58 87h1M58 88h1M58 89h1M53 90h5M59 90h3M58 91h1M58 92h1M58 93h1" fill="#b4c7b4" />
  <path d="M78 74h1M62 90h1M58 94h1" fill="#b4c8b5" />
  <path d="M79 74h1M63 90h1M58 95h1" fill="#b4c8b4" />
  <path d="M80 74h3" fill="#d9c868" />
  <path d="M83 74h2" fill="#d9c968" />
  <path d="M85 74h2" fill="#253028" />
  <path d="M87 74h3" fill="#253128" />
  <path d="M90 74h1" fill="#5a6340" />
  <path d="M91 74h5" fill="#d9ca68" />
  <path d="M96 74h3" fill="#70a46e" />
  <path d="M99 74h2" fill="#71a56d" />
  <path d="M101 74h1" fill="#52974e" />
  <path d="M102 74h3" fill="#52984e" />
  <path d="M105 74h1" fill="#52994e" />
  <path d="M106 74h1" fill="#52974f" />
  <path d="M107 74h3" fill="#61a75d" />
  <path d="M110 74h1" fill="#61a85d" />
  <path d="M111 74h1" fill="#62a85d" />
  <path d="M112 74h1M96 90h1M90 96h1M74 112h1" fill="#3f8a39" />
  <path d="M113 74h2M97 90h2M90 97h1M90 98h1M74 113h1M74 114h1" fill="#3f8b39" />
  <path d="M115 74h2M99 90h3M90 99h1M90 100h1M90 101h1M74 115h1M74 116h1M74 117h1" fill="#3f8c39" />
  <path d="M117 74h1M106 84h1" fill="#1d451d" />
  <path d="M118 74h1" fill="#1d451c" />
  <path d="M119 74h2" fill="#1d461c" />
  <path d="M121 74h1" fill="#1d471c" />
  <path d="M122 74h1" fill="#215921" />
  <path d="M127 74h1M126 75h1M125 76h1M124 77h1M123 78h1M121 80h1M120 81h1M119 82h1M118 83h1M117 84h1" fill="#2b972c" />
  <path d="M10 75h1M10 76h1" fill="#192f2c" />
  <path d="M48 75h5M59 75h5M69 75h5M48 76h5M59 76h5M69 76h5M48 77h5M59 77h5M69 77h5M48 78h5M59 78h5M69 78h5M48 79h5M59 79h5M69 79h5M43 80h15M59 80h15M75 80h5M43 81h15M59 81h15M75 81h5M43 82h15M59 82h15M75 82h5M43 83h15M59 83h15M75 83h5M43 84h15M59 84h15M75 84h5" fill="#ff2a5f" />
  <path d="M58 75h1M58 76h1" fill="#83414f" />
  <path d="M74 75h1M74 76h1M74 77h1M74 79h1" fill="#e65e7a" />
  <path d="M90 75h1M90 76h1M90 77h1M90 78h1M90 79h1" fill="#465049" />
  <path d="M106 75h1" fill="#4d9549" />
  <path d="M122 75h1" fill="#20521f" />
  <path d="M127 75h1M126 76h1M125 77h1M124 78h1M123 79h1M122 80h1M121 81h1M120 82h1M119 83h1M118 84h1M117 85h1" fill="#2c992c" />
  <path d="M106 76h1M106 77h1" fill="#4d9649" />
  <path d="M122 76h1" fill="#20531f" />
  <path d="M127 76h1M126 77h1M125 78h1M124 79h1M123 80h1M122 81h1M121 82h1M120 83h1M119 84h1M118 85h1M117 86h1" fill="#2c9b2b" />
  <path d="M10 77h1M10 78h1M10 79h1" fill="#19302c" />
  <path d="M58 77h1M58 78h1M58 79h1" fill="#83424f" />
  <path d="M122 77h1" fill="#20531e" />
  <path d="M127 77h1M126 78h1M125 79h1M124 80h1M123 81h1M122 82h1M121 83h1M120 84h1M119 85h1M118 86h1M117 87h1" fill="#2c9d2b" />
  <path d="M74 78h1" fill="#e65e7b" />
  <path d="M106 78h1" fill="#4d9749" />
  <path d="M122 78h1" fill="#20541e" />
  <path d="M127 78h1M126 79h1M125 80h1M124 81h1M123 82h1M122 83h1M121 84h1M120 85h1M119 86h1M118 87h1M117 88h1" fill="#2c9f2a" />
  <path d="M106 79h1" fill="#4e9749" />
  <path d="M122 79h1" fill="#20551e" />
  <path d="M127 79h1M126 80h1M125 81h1M124 82h1M123 83h1M122 84h1M121 85h1M120 86h1M119 87h1M118 88h1M117 89h1" fill="#2da12a" />
  <path d="M58 80h1M74 80h1M58 81h1M74 81h1M58 82h1M74 82h1M58 83h1M58 84h1" fill="#ee4c70" />
  <path d="M90 80h1M90 81h1" fill="#b4cfb3" />
  <path d="M106 80h1M106 81h1M106 82h1" fill="#1d431d" />
  <path d="M127 80h1M126 81h1M125 82h1M124 83h1M123 84h1M122 85h1M121 86h1M120 87h1M119 88h1M118 89h1M117 90h1" fill="#2da32a" />
  <path d="M127 81h1M126 82h1M125 83h1M124 84h1M123 85h1M122 86h1M121 87h1M120 88h1M119 89h1M118 90h1M117 91h1" fill="#2da529" />
  <path d="M90 82h1" fill="#b4d0b3" />
  <path d="M127 82h1M126 83h1M125 84h1M124 85h1M123 86h1M122 87h1M121 88h1M120 89h1M119 90h1M118 91h1M117 92h1" fill="#2da729" />
  <path d="M74 83h1M74 84h1" fill="#ee4d70" />
  <path d="M90 83h1M90 84h1" fill="#b5d0b2" />
  <path d="M106 83h1" fill="#1d441d" />
  <path d="M127 83h1M126 84h1M125 85h1M124 86h1M123 87h1M122 88h1M121 89h1M120 90h1M119 91h1M118 92h1M117 93h1" fill="#2ea828" />
  <path d="M127 84h1M126 85h1M125 86h1M124 87h1M123 88h1M122 89h1M121 90h1M120 91h1M119 92h1M118 93h1M117 94h1" fill="#2eaa28" />
  <path d="M74 85h1M69 90h1" fill="#b4cab4" />
  <path d="M90 85h1M85 90h1" fill="#82b17f" />
  <path d="M127 85h1M126 86h1M125 87h1M124 88h1M123 89h1M122 90h1M121 91h1M120 92h1M119 93h1M118 94h1M117 95h1" fill="#2eac27" />
  <path d="M74 86h1M70 90h1" fill="#b4cab3" />
  <path d="M90 86h1M90 87h1M90 88h1M86 90h3" fill="#82b27f" />
  <path d="M106 86h1M86 106h1M70 122h1" fill="#316e2c" />
  <path d="M127 86h1M126 87h1M125 88h1M124 89h1M123 90h1M122 91h1M121 92h1M120 93h1M119 94h1M118 95h1" fill="#2eae27" />
  <path d="M74 87h1M71 90h1" fill="#b4cbb3" />
  <path d="M106 87h1M106 88h1M106 89h1M87 106h3M71 122h3" fill="#316f2c" />
  <path d="M127 87h1M126 88h1M125 89h1M124 90h1M123 91h1M122 92h1M121 93h1M120 94h1M119 95h1" fill="#2fb026" />
  <path d="M74 88h1M74 89h1M72 90h2" fill="#b4ccb3" />
  <path d="M127 88h1M126 89h1M125 90h1M124 91h1M123 92h1M122 93h1M121 94h1M120 95h1" fill="#2fb226" />
  <path d="M90 89h1M89 90h1" fill="#82b37e" />
  <path d="M127 89h1M126 90h1M125 91h1M124 92h1M123 93h1M122 94h1M121 95h1" fill="#2fb425" />
  <path d="M10 90h1" fill="#1f3b2c" />
  <path d="M26 90h1" fill="#38713a" />
  <path d="M32 90h10M43 90h2" fill="#80a680" />
  <path d="M42 90h1" fill="#749a77" />
  <path d="M45 90h1" fill="#80a780" />
  <path d="M46 90h7" fill="#80a781" />
  <path d="M58 90h1" fill="#a4b9a9" />
  <path d="M64 90h2" fill="#81a881" />
  <path d="M66 90h1" fill="#81a981" />
  <path d="M67 90h2" fill="#81aa81" />
  <path d="M74 90h1" fill="#94b495" />
  <path d="M75 90h2M74 91h1M74 92h1" fill="#81ad80" />
  <path d="M77 90h3M74 93h1M74 94h1M74 95h1" fill="#81ae80" />
  <path d="M80 90h2" fill="#81af80" />
  <path d="M82 90h1" fill="#81b080" />
  <path d="M83 90h2" fill="#82b07f" />
  <path d="M90 90h1" fill="#609b5d" />
  <path d="M92 90h2M90 92h1M90 93h1" fill="#3e893a" />
  <path d="M94 90h1M90 94h1" fill="#3e8a3a" />
  <path d="M95 90h1M90 95h1" fill="#3f8a3a" />
  <path d="M102 90h1M90 102h1M74 118h1" fill="#3f8d38" />
  <path d="M103 90h3M90 103h1M90 104h1M90 105h1M74 119h1M74 120h1M74 121h1" fill="#3f8e38" />
  <path d="M106 90h1" fill="#367f30" />
  <path d="M107 90h1" fill="#2c6628" />
  <path d="M108 90h2" fill="#2c6728" />
  <path d="M110 90h2" fill="#2c6828" />
  <path d="M112 90h1M90 110h1M90 111h1M74 126h1M74 127h1" fill="#1e491c" />
  <path d="M113 90h1" fill="#1e4a1c" />
  <path d="M114 90h1" fill="#1e4b1c" />
  <path d="M115 90h2" fill="#1e4b1b" />
  <path d="M127 90h1M126 91h1M125 92h1M124 93h1M123 94h1M122 95h1" fill="#2fb625" />
  <path d="M106 91h1" fill="#3f8f38" />
  <path d="M127 91h1M126 92h1M125 93h1M124 94h1M123 95h1" fill="#30b824" />
  <path d="M106 92h1M106 93h1M106 94h1" fill="#3f9038" />
  <path d="M127 92h1M126 93h1M125 94h1M124 95h1" fill="#30ba24" />
  <path d="M127 93h1M126 94h1M125 95h1" fill="#30bc24" />
  <path d="M127 94h1M126 95h1" fill="#30be23" />
  <path d="M106 95h1M106 96h1M90 112h1" fill="#3f9138" />
  <path d="M127 95h1" fill="#31c023" />
  <path d="M58 96h1M58 97h1M42 112h1M42 113h1" fill="#3d7d3c" />
  <path d="M74 96h1M74 97h1M74 98h1M58 112h1M58 113h1M58 114h1" fill="#3d843b" />
  <path d="M122 96h1M122 97h1M95 122h3" fill="#32792a" />
  <path d="M106 97h1M106 98h1M90 113h1M90 114h1" fill="#3f9238" />
  <path d="M58 98h1M58 99h1M58 100h1M42 114h1M42 115h1M42 116h1" fill="#3d7e3c" />
  <path d="M122 98h1M98 122h1" fill="#327a2a" />
  <path d="M74 99h1M74 100h1M58 115h1M58 116h1" fill="#3e853a" />
  <path d="M106 99h1M90 115h1" fill="#3f9237" />
  <path d="M122 99h1M99 122h1" fill="#327b2a" />
  <path d="M106 100h1M90 116h1" fill="#3f9337" />
  <path d="M122 100h1M122 101h1M122 102h1M100 122h3" fill="#337b2a" />
  <path d="M10 101h1M10 102h1M10 103h1M10 104h1M10 105h1" fill="#2d5b2f" />
  <path d="M58 101h1M58 102h1M42 117h1M42 118h1" fill="#3d7f3c" />
  <path d="M106 101h1M106 102h1M101 106h2" fill="#1e4c1b" />
  <path d="M58 103h1M58 104h1M58 105h1M42 119h1M42 120h1M42 121h1" fill="#3d803c" />
  <path d="M106 103h1M103 106h1" fill="#1e4d1b" />
  <path d="M122 103h1M103 122h1" fill="#337c29" />
  <path d="M106 104h1M106 105h1M104 106h2" fill="#1f4d1b" />
  <path d="M122 104h1M122 105h1M104 122h2" fill="#337d29" />
  <path d="M10 106h1" fill="#316434" />
  <path d="M16 106h10M26 107h1M26 108h1" fill="#1b3320" />
  <path d="M26 106h1" fill="#214027" />
  <path d="M29 106h8M16 122h5" fill="#2e5d30" />
  <path d="M37 106h5M43 106h3M47 106h1M21 122h5M27 122h3M31 122h1" fill="#2f5d30" />
  <path d="M42 106h1M26 122h1" fill="#2b5831" />
  <path d="M46 106h1M30 122h1" fill="#2f5d31" />
  <path d="M48 106h2M32 122h2" fill="#2f5e30" />
  <path d="M50 106h3M34 122h3" fill="#2f5f30" />
  <path d="M53 106h2M37 122h2" fill="#2f6030" />
  <path d="M55 106h3M39 122h3" fill="#2f6130" />
  <path d="M58 106h1M42 122h1" fill="#2c5f2f" />
  <path d="M74 106h1M58 122h1" fill="#2d682c" />
  <path d="M90 106h1M74 122h1" fill="#2f712b" />
  <path d="M91 106h1M75 122h1" fill="#31702c" />
  <path d="M92 106h3M76 122h3" fill="#31712c" />
  <path d="M95 106h2M79 122h2" fill="#31722c" />
  <path d="M97 106h2M81 122h2" fill="#31732c" />
  <path d="M99 106h1M83 122h1" fill="#31732b" />
  <path d="M100 106h1M84 122h1" fill="#31742b" />
  <path d="M106 106h1" fill="#1f571a" />
  <path d="M107 106h1M106 107h1M90 123h1" fill="#1f4e1a" />
  <path d="M108 106h3M106 108h1M106 109h1M106 110h1M90 124h1M90 125h1M90 126h1" fill="#1f4f1a" />
  <path d="M111 106h1M106 111h1M90 127h1" fill="#1f501a" />
  <path d="M112 106h3" fill="#2d7026" />
  <path d="M115 106h2" fill="#2d7126" />
  <path d="M117 106h2M106 116h1M106 117h1M106 118h1" fill="#419a36" />
  <path d="M119 106h1M106 119h1" fill="#419b35" />
  <path d="M120 106h2M106 120h1M106 121h1" fill="#419c35" />
  <path d="M122 106h1" fill="#338828" />
  <path d="M123 106h2M106 123h1M106 124h1" fill="#1f5519" />
  <path d="M125 106h1M106 125h1" fill="#1f5619" />
  <path d="M126 106h2M106 126h1M106 127h1" fill="#1f5718" />
  <path d="M58 107h1M42 123h1" fill="#1c3a20" />
  <path d="M90 107h1M74 123h1" fill="#1e471c" />
  <path d="M122 107h1M122 108h1M107 122h2" fill="#337e29" />
  <path d="M58 108h1M42 124h1" fill="#1c3a1f" />
  <path d="M90 108h1M90 109h1M74 124h1M74 125h1" fill="#1e481c" />
  <path d="M58 109h1M58 110h1M58 111h1M42 125h1M42 126h1M42 127h1" fill="#1c3b1f" />
  <path d="M122 109h1M109 122h1" fill="#337f29" />
  <path d="M42 110h1M26 126h1" fill="#1b3521" />
  <path d="M122 110h1M122 111h1M110 122h2" fill="#337f28" />
  <path d="M42 111h1M26 127h1" fill="#1b3520" />
  <path d="M106 112h1M106 113h1" fill="#409836" />
  <path d="M122 112h1M112 122h1" fill="#236a19" />
  <path d="M123 112h1M118 117h1M117 118h1M112 123h1" fill="#34d91d" />
  <path d="M124 112h1M118 118h1M112 124h1" fill="#34da1c" />
  <path d="M125 112h1M124 113h1M123 114h1M120 117h1M119 118h1M118 119h1M117 120h1M114 123h1M113 124h1M112 125h1" fill="#34dc1c" />
  <path d="M126 112h1M125 113h1M124 114h1M123 115h1M121 117h1M120 118h1M119 119h1M118 120h1M117 121h1M115 123h1M114 124h1M113 125h1M112 126h1" fill="#34de1b" />
  <path d="M127 112h1M126 113h1M125 114h1M124 115h1M123 116h1M122 117h1M121 118h1M120 119h1M119 120h1M118 121h1M117 122h1M116 123h1M115 124h1M114 125h1M113 126h1M112 127h1" fill="#35e01b" />
  <path d="M122 113h1M122 114h1M113 122h2" fill="#236b19" />
  <path d="M123 113h1M119 117h1M117 119h1M113 123h1" fill="#34db1c" />
  <path d="M127 113h1M126 114h1M125 115h1M124 116h1M123 117h1M122 118h1M121 119h1M120 120h1M119 121h1M118 122h1M117 123h1M116 124h1M115 125h1M114 126h1M113 127h1" fill="#35e21a" />
  <path d="M106 114h1" fill="#409936" />
  <path d="M127 114h1M126 115h1M125 116h1M124 117h1M123 118h1M122 119h1M121 120h1M120 121h1M119 122h1M118 123h1M117 124h1M116 125h1M115 126h1M114 127h1" fill="#35e41a" />
  <path d="M106 115h1" fill="#409a36" />
  <path d="M122 115h1M115 122h1" fill="#236c19" />
  <path d="M127 115h1M126 116h1M125 117h1M124 118h1M123 119h1M122 120h1M121 121h1M120 122h1M119 123h1M118 124h1M117 125h1M116 126h1M115 127h1" fill="#35e619" />
  <path d="M122 116h1M116 122h1" fill="#236c18" />
  <path d="M127 116h1M126 117h1M125 118h1M124 119h1M123 120h1M122 121h1M121 122h1M120 123h1M119 124h1M118 125h1M117 126h1M116 127h1" fill="#36e819" />
  <path d="M10 117h1M10 118h1" fill="#1c3431" />
  <path d="M90 117h1M90 118h1M90 119h1" fill="#3f9437" />
  <path d="M117 117h1" fill="#34d71d" />
  <path d="M127 117h1M126 118h1M125 119h1M124 120h1M123 121h1M122 122h1M121 123h1M120 124h1M119 125h1M118 126h1M117 127h1" fill="#36ea19" />
  <path d="M127 118h1M126 119h1M125 120h1M124 121h1M123 122h1M122 123h1M121 124h1M120 125h1M119 126h1M118 127h1" fill="#36ec18" />
  <path d="M10 119h1M10 120h1" fill="#1c3531" />
  <path d="M127 119h1M126 120h1M125 121h1M124 122h1M123 123h1M122 124h1M121 125h1M120 126h1M119 127h1" fill="#36ee18" />
  <path d="M90 120h1" fill="#409437" />
  <path d="M127 120h1M126 121h1M125 122h1M124 123h1M123 124h1M122 125h1M121 126h1M120 127h1" fill="#37f017" />
  <path d="M10 121h1" fill="#1c3532" />
  <path d="M90 121h1" fill="#409537" />
  <path d="M127 121h1M126 122h1M125 123h1M124 124h1M123 125h1M122 126h1M121 127h1" fill="#37f217" />
  <path d="M10 122h1" fill="#1c3536" />
  <path d="M13 122h1" fill="#1b3524" />
  <path d="M14 122h2" fill="#1b3525" />
  <path d="M85 122h3" fill="#31752b" />
  <path d="M88 122h1" fill="#32752b" />
  <path d="M89 122h1" fill="#32762b" />
  <path d="M90 122h1" fill="#307b29" />
  <path d="M91 122h2" fill="#32772a" />
  <path d="M93 122h2" fill="#32782a" />
  <path d="M106 122h1" fill="#318426" />
  <path d="M127 122h1M126 123h1M125 124h1M124 125h1M123 126h1M122 127h1" fill="#37f416" />
  <path d="M127 123h1M126 124h1M125 125h1M124 126h1M123 127h1" fill="#37f516" />
  <path d="M127 124h1M126 125h1M125 126h1M124 127h1" fill="#38f715" />
  <path d="M127 125h1M126 126h1M125 127h1" fill="#38f915" />
  <path d="M127 126h1M126 127h1" fill="#38fb14" />
  <path d="M127 127h1" fill="#38fd14" />
</svg>